<?xml version="1.0" encoding="UTF-8" standalone="no"?><!DOCTYPE svg PUBLIC "-//W3C//DTD SVG 1.1//EN" "http://www.w3.org/Graphics/SVG/1.1/DTD/svg11.dtd"><svg width="100%" height="100%" viewBox="0 0 98 112" version="1.1" xmlns="http://www.w3.org/2000/svg" xmlns:xlink="http://www.w3.org/1999/xlink" xml:space="preserve" xmlns:serif="http://www.serif.com/" style="fill-rule:evenodd;clip-rule:evenodd;stroke-linejoin:round;stroke-miterlimit:2;"><path d="M85.516,12.5l-73.829,0c-3.383,0 -6.131,2.787 -6.131,6.208l-0,73.695c-0,3.421 2.748,6.208 6.131,6.208l73.829,0c3.383,0 6.151,-2.787 6.151,-6.208l-0,-73.695c-0,-3.421 -2.768,-6.208 -6.151,-6.208Zm-53.916,73.81l-12.782,-0l0,-41.095l12.782,-0l0,41.095Zm-6.4,-46.708c-4.094,-0 -7.401,-3.325 -7.401,-7.4c0,-4.075 3.307,-7.4 7.401,-7.4c4.075,-0 7.4,3.325 7.4,7.4c-0,4.094 -3.306,7.4 -7.4,7.4Zm54.223,46.708l-12.763,-0l-0,-19.991c-0,-4.766 -0.096,-10.898 -6.631,-10.898c-6.651,0 -7.67,5.19 -7.67,10.552l0,20.337l-12.763,-0l0,-41.095l12.244,-0l0,5.612l0.173,0c1.711,-3.229 5.882,-6.631 12.09,-6.631c12.917,-0 15.32,8.515 15.32,19.586l-0,22.528Z" style="fill:#1e3050;fill-rule:nonzero;"/></svg>